<svg width="24" height="24" viewBox="0 0 24 24" fill="none" xmlns="http://www.w3.org/2000/svg">
    <g id="blogs">
        <path id='blogs'
              d="M3 13H5V11H3V13ZM3 17H5V15H3V17ZM3 9H5V7H3V9ZM7 13H21V11H7V13ZM7 17H21V15H7V17ZM7 7V9H21V7H7ZM3 13H5V11H3V13ZM3 17H5V15H3V17ZM3 9H5V7H3V9ZM7 13H21V11H7V13ZM7 17H21V15H7V17ZM7 7V9H21V7H7Z"
              fill="currentColor"/>
    </g>
    <g id="posts">
        <path d="M3 3V11H11V3H3ZM9 9H5V5H9V9ZM3 13V21H11V13H3ZM9 19H5V15H9V19ZM13 3V11H21V3H13ZM19 9H15V5H19V9ZM13 13V21H21V13H13ZM19 19H15V15H19V19Z" fill="currentColor"/>

    </g>
</svg>
